<mxfile host="app.diagrams.net" modified="2024-07-11T15:56:52.669Z" agent="Mozilla/5.0 (Windows NT 10.0; Win64; x64) AppleWebKit/537.36 (KHTML, like Gecko) Chrome/126.0.0.0 Safari/537.36" etag="PICqrejDotodls1r84fR" version="24.6.4" type="device">
  <diagram id="UvZDlFE-ZOhQ-QNKjoIz" name="Page-1">
    <mxGraphModel dx="934" dy="525" grid="0" gridSize="10" guides="1" tooltips="1" connect="1" arrows="1" fold="1" page="1" pageScale="1" pageWidth="850" pageHeight="1100" math="0" shadow="0">
      <root>
        <mxCell id="0" />
        <mxCell id="1" parent="0" />
        <mxCell id="B7uuG19sNvXdfTLv7ygJ-1" value="Start&#xa;  |&#xa;  v&#xa;Determine K (number of nearest neighbors)&#xa;  |&#xa;  v&#xa;Input Test Data&#xa;  |&#xa;  v&#xa;Calculate Euclidean Distance to each training data point&#xa;  |&#xa;  v&#xa;Sort Distances in Ascending Order&#xa;  |&#xa;  v&#xa;Select K Nearest Neighbors&#xa;  |&#xa;  v&#xa;Classify Data based on majority class of neighbors&#xa;  |&#xa;  v&#xa;Output Prediction&#xa;  |&#xa;  v&#xa;End" style="text;whiteSpace=wrap;" parent="1" vertex="1">
          <mxGeometry x="30" y="80" width="330" height="380" as="geometry" />
        </mxCell>
        <mxCell id="UBxSShQqIdIL1vc1phmC-1" value="" style="edgeStyle=orthogonalEdgeStyle;rounded=0;orthogonalLoop=1;jettySize=auto;html=1;" edge="1" parent="1" source="B7uuG19sNvXdfTLv7ygJ-2" target="B7uuG19sNvXdfTLv7ygJ-3">
          <mxGeometry relative="1" as="geometry" />
        </mxCell>
        <mxCell id="B7uuG19sNvXdfTLv7ygJ-2" value="Start" style="html=1;dashed=0;whiteSpace=wrap;shape=mxgraph.dfd.start" parent="1" vertex="1">
          <mxGeometry x="889" y="133" width="80" height="40" as="geometry" />
        </mxCell>
        <mxCell id="UBxSShQqIdIL1vc1phmC-2" value="" style="edgeStyle=orthogonalEdgeStyle;rounded=0;orthogonalLoop=1;jettySize=auto;html=1;" edge="1" parent="1" source="B7uuG19sNvXdfTLv7ygJ-3" target="B7uuG19sNvXdfTLv7ygJ-4">
          <mxGeometry relative="1" as="geometry" />
        </mxCell>
        <mxCell id="B7uuG19sNvXdfTLv7ygJ-3" value="Menentukan K" style="rounded=0;whiteSpace=wrap;html=1;" parent="1" vertex="1">
          <mxGeometry x="1008" y="133" width="90" height="40" as="geometry" />
        </mxCell>
        <mxCell id="UBxSShQqIdIL1vc1phmC-3" value="" style="edgeStyle=orthogonalEdgeStyle;rounded=0;orthogonalLoop=1;jettySize=auto;html=1;" edge="1" parent="1" source="B7uuG19sNvXdfTLv7ygJ-4" target="B7uuG19sNvXdfTLv7ygJ-5">
          <mxGeometry relative="1" as="geometry" />
        </mxCell>
        <mxCell id="B7uuG19sNvXdfTLv7ygJ-4" value="Input File MSD" style="shape=parallelogram;perimeter=parallelogramPerimeter;whiteSpace=wrap;html=1;fixedSize=1;" parent="1" vertex="1">
          <mxGeometry x="1116" y="133" width="105" height="40" as="geometry" />
        </mxCell>
        <mxCell id="UBxSShQqIdIL1vc1phmC-4" value="" style="edgeStyle=orthogonalEdgeStyle;rounded=0;orthogonalLoop=1;jettySize=auto;html=1;" edge="1" parent="1" source="B7uuG19sNvXdfTLv7ygJ-5" target="B7uuG19sNvXdfTLv7ygJ-6">
          <mxGeometry relative="1" as="geometry" />
        </mxCell>
        <mxCell id="B7uuG19sNvXdfTLv7ygJ-5" value="Ekstrak Fitur" style="rounded=0;whiteSpace=wrap;html=1;" parent="1" vertex="1">
          <mxGeometry x="1253" y="133" width="90" height="40" as="geometry" />
        </mxCell>
        <mxCell id="UBxSShQqIdIL1vc1phmC-5" value="" style="edgeStyle=orthogonalEdgeStyle;rounded=0;orthogonalLoop=1;jettySize=auto;html=1;" edge="1" parent="1" source="B7uuG19sNvXdfTLv7ygJ-6" target="B7uuG19sNvXdfTLv7ygJ-7">
          <mxGeometry relative="1" as="geometry" />
        </mxCell>
        <mxCell id="B7uuG19sNvXdfTLv7ygJ-6" value="Menghitung Euclidean Distance untuk setiap Ekstraksi Fitur" style="rounded=0;whiteSpace=wrap;html=1;" parent="1" vertex="1">
          <mxGeometry x="1385" y="118" width="125" height="70" as="geometry" />
        </mxCell>
        <mxCell id="UBxSShQqIdIL1vc1phmC-6" value="" style="edgeStyle=orthogonalEdgeStyle;rounded=0;orthogonalLoop=1;jettySize=auto;html=1;" edge="1" parent="1" source="B7uuG19sNvXdfTLv7ygJ-7" target="B7uuG19sNvXdfTLv7ygJ-14">
          <mxGeometry relative="1" as="geometry" />
        </mxCell>
        <mxCell id="B7uuG19sNvXdfTLv7ygJ-7" value="Mengurutkan Dari Terkecil" style="rounded=0;whiteSpace=wrap;html=1;" parent="1" vertex="1">
          <mxGeometry x="1402.5" y="211" width="90" height="40" as="geometry" />
        </mxCell>
        <mxCell id="UBxSShQqIdIL1vc1phmC-7" value="" style="edgeStyle=orthogonalEdgeStyle;rounded=0;orthogonalLoop=1;jettySize=auto;html=1;" edge="1" parent="1" source="B7uuG19sNvXdfTLv7ygJ-14" target="B7uuG19sNvXdfTLv7ygJ-16">
          <mxGeometry relative="1" as="geometry" />
        </mxCell>
        <mxCell id="B7uuG19sNvXdfTLv7ygJ-14" value="Memprediksi Data berdasarkan nilai K dan Hasil Urutan" style="rounded=0;whiteSpace=wrap;html=1;" parent="1" vertex="1">
          <mxGeometry x="1213" y="206" width="155" height="50" as="geometry" />
        </mxCell>
        <mxCell id="B7uuG19sNvXdfTLv7ygJ-16" value="End" style="html=1;dashed=0;whiteSpace=wrap;shape=mxgraph.dfd.start" parent="1" vertex="1">
          <mxGeometry x="1100" y="211" width="80" height="40" as="geometry" />
        </mxCell>
      </root>
    </mxGraphModel>
  </diagram>
</mxfile>
